M48
INCH,TZ
T1C0.0197
T2C0.0236
T3C0.0276
T4C0.0315
T5C0.0354
T6C0.0394
T7C0.0433
T8C0.0472
T9C0.0866
T10C0.0984
%
G90
G05
T1
X30350Y-16656
X30350Y-17050
X36900Y-16500
X36900Y-16894
X42606Y-43002
X42606Y-43396
X42606Y-43789
X45919Y-48396
X45919Y-48789
X45919Y-49183
T2
X43325Y-56900
X44112Y-56900
T3
X18800Y-23950
X19000Y-25650
X19563Y-29067
X19724Y-27547
X21800Y-23950
X22000Y-25650
X22450Y-17300
X22450Y-20300
X22563Y-29067
X22724Y-27547
X24000Y-17400
X24000Y-20400
X26300Y-16450
X26300Y-17250
X28750Y-24450
X29300Y-16450
X29300Y-17250
X31750Y-24450
X32900Y-16300
X32900Y-17150
X35900Y-16300
X35900Y-17150
X37200Y-30200
X38250Y-26750
X39450Y-17100
X39450Y-22250
X40200Y-30200
X41250Y-26750
X42450Y-17100
X42450Y-22250
X47085Y-58337
X48566Y-40039
X48913Y-36948
X48913Y-38189
X50085Y-58337
X51566Y-40039
X51913Y-36948
X51913Y-38189
T4
X20550Y-56100
X20550Y-58100
X21550Y-56100
X21550Y-58100
X22550Y-56100
X22550Y-58100
X25000Y-22600
X25000Y-23584
X25800Y-52950
X26300Y-18250
X26300Y-19250
X26300Y-20250
X26300Y-21250
X26800Y-52950
X27200Y-29250
X27200Y-30250
X27200Y-31250
X27200Y-32250
X27800Y-52950
X29300Y-18250
X29300Y-19250
X29300Y-20250
X29300Y-21250
X29300Y-22466
X29300Y-23450
X29585Y-35467
X30000Y-46000
X30000Y-47000
X30000Y-48000
X30000Y-49000
X30200Y-29250
X30200Y-30250
X30200Y-31250
X30200Y-32250
X30570Y-35467
X31150Y-22450
X31150Y-23434
X32900Y-18150
X32900Y-19150
X32900Y-20150
X32900Y-21150
X33000Y-46000
X33000Y-47000
X33000Y-48000
X33000Y-49000
X35900Y-18150
X35900Y-19150
X35900Y-20150
X35900Y-21150
X36766Y-41000
X37750Y-41000
X37950Y-22216
X37950Y-23200
X39450Y-18150
X39450Y-19150
X39450Y-20150
X39450Y-21150
X42450Y-18150
X42450Y-19150
X42450Y-20150
X42450Y-21150
X49648Y-49663
X49817Y-51691
X50648Y-49663
X50801Y-51691
X51648Y-49663
X51778Y-58081
X52762Y-58081
T5
X22450Y-15200
X22450Y-16200
X35050Y-32900
X36050Y-32900
T6
X20800Y-41000
X20800Y-41984
X20800Y-42969
X26509Y-41000
X26509Y-42969
X46550Y-15900
X46550Y-16900
X46550Y-17900
X46550Y-18900
X46550Y-19900
X46550Y-20900
X46550Y-21900
X46550Y-22900
X46550Y-23900
X46550Y-24900
X46550Y-25900
X46550Y-26900
X46550Y-27900
X46550Y-28900
X46550Y-29900
X52550Y-15900
X52550Y-16900
X52550Y-17900
X52550Y-18900
X52550Y-19900
X52550Y-20900
X52550Y-21900
X52550Y-22900
X52550Y-23900
X52550Y-24900
X52550Y-25900
X52550Y-26900
X52550Y-27900
X52550Y-28900
X52550Y-29900
T7
X18300Y-49650
X18300Y-50650
X18300Y-51650
X47242Y-56880
X49758Y-47656
X50242Y-56880
X52758Y-47656
T8
X19565Y-60245
X20565Y-60245
X21565Y-60245
X22565Y-60245
X23565Y-60245
X24565Y-60245
X25565Y-60245
X26565Y-60245
X27565Y-60245
X28565Y-60245
X29565Y-60245
X30565Y-60245
X31565Y-60245
X32565Y-60245
X33565Y-60245
X34565Y-60245
T9
X23753Y-39780
X23753Y-44189
T10
X17400Y-60245
X17400Y-72450
X46927Y-72450
X46927Y-60245
T4
G00X17310Y-18336
M15
G01X17310Y-19202
M16
G05
G00X19633Y-17667
M15
G01X18767Y-17667
M16
G05
G00X19712Y-19950
M15
G01X18688Y-19950
M16
G05
T0
M30
