%TF.GenerationSoftware,KiCad,Pcbnew,(5.1.12)-1*%
%TF.CreationDate,2021-12-20T08:39:49-03:00*%
%TF.ProjectId,Control,436f6e74-726f-46c2-9e6b-696361645f70,rev?*%
%TF.SameCoordinates,Original*%
%TF.FileFunction,Copper,L2,Bot*%
%TF.FilePolarity,Positive*%
%FSLAX46Y46*%
G04 Gerber Fmt 4.6, Leading zero omitted, Abs format (unit mm)*
G04 Created by KiCad (PCBNEW (5.1.12)-1) date 2021-12-20 08:39:49*
%MOMM*%
%LPD*%
G01*
G04 APERTURE LIST*
%TA.AperFunction,ComponentPad*%
%ADD10O,1.600000X1.600000*%
%TD*%
%TA.AperFunction,ComponentPad*%
%ADD11R,1.600000X1.600000*%
%TD*%
%TA.AperFunction,ComponentPad*%
%ADD12C,1.600000*%
%TD*%
%TA.AperFunction,ComponentPad*%
%ADD13C,1.200000*%
%TD*%
%TA.AperFunction,ComponentPad*%
%ADD14R,2.200000X2.200000*%
%TD*%
%TA.AperFunction,ComponentPad*%
%ADD15O,2.200000X2.200000*%
%TD*%
%TA.AperFunction,ComponentPad*%
%ADD16C,1.800000*%
%TD*%
%TA.AperFunction,ComponentPad*%
%ADD17R,1.800000X1.800000*%
%TD*%
%TA.AperFunction,ComponentPad*%
%ADD18R,1.800000X2.600000*%
%TD*%
%TA.AperFunction,ComponentPad*%
%ADD19O,1.800000X2.600000*%
%TD*%
%TA.AperFunction,ComponentPad*%
%ADD20C,3.000000*%
%TD*%
%TA.AperFunction,ComponentPad*%
%ADD21O,1.800000X4.000000*%
%TD*%
%TA.AperFunction,ComponentPad*%
%ADD22O,4.000000X1.800000*%
%TD*%
%TA.AperFunction,ComponentPad*%
%ADD23R,4.400000X1.800000*%
%TD*%
%TA.AperFunction,ComponentPad*%
%ADD24R,0.850000X0.850000*%
%TD*%
%TA.AperFunction,ComponentPad*%
%ADD25O,0.850000X0.850000*%
%TD*%
%TA.AperFunction,ComponentPad*%
%ADD26C,1.440000*%
%TD*%
%TA.AperFunction,ComponentPad*%
%ADD27O,1.400000X1.400000*%
%TD*%
%TA.AperFunction,ComponentPad*%
%ADD28C,1.400000*%
%TD*%
%TA.AperFunction,ComponentPad*%
%ADD29C,2.000000*%
%TD*%
%TA.AperFunction,ComponentPad*%
%ADD30C,2.800000*%
%TD*%
%TA.AperFunction,ComponentPad*%
%ADD31R,2.000000X2.000000*%
%TD*%
%TA.AperFunction,ComponentPad*%
%ADD32R,2.000000X1.905000*%
%TD*%
%TA.AperFunction,ComponentPad*%
%ADD33O,2.000000X1.905000*%
%TD*%
%TA.AperFunction,Conductor*%
%ADD34C,0.800000*%
%TD*%
G04 APERTURE END LIST*
D10*
%TO.P,U6,8*%
%TO.N,+5V*%
X76708000Y-74295000D03*
%TO.P,U6,4*%
%TO.N,GND*%
X69088000Y-81915000D03*
%TO.P,U6,7*%
%TO.N,Net-(R14-Pad1)*%
X76708000Y-76835000D03*
%TO.P,U6,3*%
%TO.N,Net-(R13-Pad1)*%
X69088000Y-79375000D03*
%TO.P,U6,6*%
%TO.N,Net-(R14-Pad1)*%
X76708000Y-79375000D03*
%TO.P,U6,2*%
%TO.N,Net-(R14-Pad2)*%
X69088000Y-76835000D03*
%TO.P,U6,5*%
%TO.N,Net-(JP3-Pad2)*%
X76708000Y-81915000D03*
D11*
%TO.P,U6,1*%
%TO.N,ADC1*%
X69088000Y-74295000D03*
%TD*%
D10*
%TO.P,U5,8*%
%TO.N,+5V*%
X83820000Y-116840000D03*
%TO.P,U5,4*%
%TO.N,GND*%
X76200000Y-124460000D03*
%TO.P,U5,7*%
%TO.N,Net-(R6-Pad1)*%
X83820000Y-119380000D03*
%TO.P,U5,3*%
%TO.N,Net-(R5-Pad1)*%
X76200000Y-121920000D03*
%TO.P,U5,6*%
%TO.N,Net-(R6-Pad1)*%
X83820000Y-121920000D03*
%TO.P,U5,2*%
%TO.N,Net-(R10-Pad1)*%
X76200000Y-119380000D03*
%TO.P,U5,5*%
%TO.N,Net-(JP1-Pad2)*%
X83820000Y-124460000D03*
D11*
%TO.P,U5,1*%
%TO.N,IN_P*%
X76200000Y-116840000D03*
%TD*%
%TO.P,A1,1*%
%TO.N,N/C*%
X133477000Y-75946000D03*
D10*
%TO.P,A1,17*%
X118237000Y-42926000D03*
%TO.P,A1,2*%
X133477000Y-73406000D03*
%TO.P,A1,18*%
X118237000Y-45466000D03*
%TO.P,A1,3*%
X133477000Y-70866000D03*
%TO.P,A1,19*%
%TO.N,ADC1*%
X118237000Y-48006000D03*
%TO.P,A1,4*%
%TO.N,GND*%
X133477000Y-68326000D03*
%TO.P,A1,20*%
%TO.N,ADC2*%
X118237000Y-50546000D03*
%TO.P,A1,5*%
%TO.N,N/C*%
X133477000Y-65786000D03*
%TO.P,A1,21*%
X118237000Y-53086000D03*
%TO.P,A1,6*%
X133477000Y-63246000D03*
%TO.P,A1,22*%
X118237000Y-55626000D03*
%TO.P,A1,7*%
X133477000Y-60706000D03*
%TO.P,A1,23*%
X118237000Y-58166000D03*
%TO.P,A1,8*%
X133477000Y-58166000D03*
%TO.P,A1,24*%
X118237000Y-60706000D03*
%TO.P,A1,9*%
X133477000Y-55626000D03*
%TO.P,A1,25*%
X118237000Y-63246000D03*
%TO.P,A1,10*%
X133477000Y-53086000D03*
%TO.P,A1,26*%
X118237000Y-65786000D03*
%TO.P,A1,11*%
X133477000Y-50546000D03*
%TO.P,A1,27*%
X118237000Y-68326000D03*
%TO.P,A1,12*%
%TO.N,Accion_de_control*%
X133477000Y-48006000D03*
%TO.P,A1,28*%
%TO.N,N/C*%
X118237000Y-70866000D03*
%TO.P,A1,13*%
X133477000Y-45466000D03*
%TO.P,A1,29*%
%TO.N,GND*%
X118237000Y-73406000D03*
%TO.P,A1,14*%
%TO.N,N/C*%
X133477000Y-42926000D03*
%TO.P,A1,30*%
%TO.N,+5V*%
X118237000Y-75946000D03*
%TO.P,A1,15*%
%TO.N,N/C*%
X133477000Y-40386000D03*
%TO.P,A1,16*%
X118237000Y-40386000D03*
%TD*%
D12*
%TO.P,C1,2*%
%TO.N,GND*%
X129035001Y-131295001D03*
%TO.P,C1,1*%
%TO.N,Net-(C1-Pad1)*%
X126535001Y-131295001D03*
%TD*%
%TO.P,C2,1*%
%TO.N,Net-(C2-Pad1)*%
X63500000Y-57404000D03*
%TO.P,C2,2*%
%TO.N,GND*%
X63500000Y-59904000D03*
%TD*%
%TO.P,C3,1*%
%TO.N,+5V*%
X75147001Y-90087001D03*
%TO.P,C3,2*%
%TO.N,GND*%
X77647001Y-90087001D03*
%TD*%
%TO.P,C4,2*%
%TO.N,GND*%
X79121000Y-59523000D03*
%TO.P,C4,1*%
%TO.N,Net-(C4-Pad1)*%
X79121000Y-57023000D03*
%TD*%
%TO.P,C5,1*%
%TO.N,ADC2*%
X93385000Y-104140000D03*
%TO.P,C5,2*%
%TO.N,GND*%
X95885000Y-104140000D03*
%TD*%
%TO.P,C6,2*%
%TO.N,GND*%
X96393000Y-56428000D03*
%TO.P,C6,1*%
%TO.N,Net-(C6-Pad1)*%
X96393000Y-58928000D03*
%TD*%
%TO.P,C7,1*%
%TO.N,Net-(C7-Pad1)*%
X131515001Y-147525001D03*
%TO.P,C7,2*%
%TO.N,GND*%
X134015001Y-147525001D03*
%TD*%
%TO.P,C8,2*%
%TO.N,GND*%
X74422000Y-59563000D03*
%TO.P,C8,1*%
%TO.N,Net-(C8-Pad1)*%
X74422000Y-57063000D03*
%TD*%
D13*
%TO.P,C9,1*%
%TO.N,+12V*%
X110045001Y-144525001D03*
%TO.P,C9,2*%
%TO.N,GND*%
X112045001Y-144525001D03*
%TD*%
D14*
%TO.P,D1,1*%
%TO.N,+5V*%
X126385001Y-121045001D03*
D15*
%TO.P,D1,2*%
%TO.N,+12V*%
X134005001Y-121045001D03*
%TD*%
D16*
%TO.P,D2,2*%
%TO.N,+12V*%
X57023000Y-38608000D03*
D17*
%TO.P,D2,1*%
%TO.N,Net-(D2-Pad1)*%
X57023000Y-41148000D03*
%TD*%
D15*
%TO.P,D3,2*%
%TO.N,+5V*%
X127615001Y-144475001D03*
D14*
%TO.P,D3,1*%
%TO.N,Net-(C1-Pad1)*%
X119995001Y-144475001D03*
%TD*%
D17*
%TO.P,D4,1*%
%TO.N,Net-(D4-Pad1)*%
X89027000Y-83566000D03*
D16*
%TO.P,D4,2*%
%TO.N,OUT_P*%
X91567000Y-83566000D03*
%TD*%
D18*
%TO.P,DS1,1*%
%TO.N,GND*%
X49695100Y-153022300D03*
D19*
%TO.P,DS1,2*%
%TO.N,+5V*%
X52235100Y-153022300D03*
%TO.P,DS1,3*%
%TO.N,Net-(DS1-Pad3)*%
X54775100Y-153022300D03*
%TO.P,DS1,4*%
%TO.N,N/C*%
X57315100Y-153022300D03*
%TO.P,DS1,5*%
%TO.N,GND*%
X59855100Y-153022300D03*
%TO.P,DS1,6*%
%TO.N,N/C*%
X62395100Y-153022300D03*
%TO.P,DS1,7*%
X64935100Y-153022300D03*
%TO.P,DS1,8*%
X67475100Y-153022300D03*
%TO.P,DS1,9*%
X70015100Y-153022300D03*
%TO.P,DS1,10*%
X72555100Y-153022300D03*
%TO.P,DS1,11*%
X75095100Y-153022300D03*
%TO.P,DS1,12*%
X77635100Y-153022300D03*
%TO.P,DS1,13*%
X80175100Y-153022300D03*
%TO.P,DS1,14*%
X82715100Y-153022300D03*
%TO.P,DS1,15*%
%TO.N,+5V*%
X85255100Y-153022300D03*
%TO.P,DS1,16*%
%TO.N,GND*%
X87795100Y-153022300D03*
D20*
%TO.P,DS1,*%
%TO.N,*%
X44196000Y-153022300D03*
X44196000Y-184023000D03*
X119194580Y-184023000D03*
X119195100Y-153022300D03*
%TD*%
D21*
%TO.P,J1,3*%
%TO.N,GND*%
X43968000Y-47673000D03*
D22*
%TO.P,J1,2*%
X48768000Y-44873000D03*
D23*
%TO.P,J1,1*%
%TO.N,+12V*%
X48768000Y-50673000D03*
%TD*%
D24*
%TO.P,JP1,1*%
%TO.N,Net-(JP1-Pad1)*%
X116635001Y-122925001D03*
D25*
%TO.P,JP1,2*%
%TO.N,Net-(JP1-Pad2)*%
X116635001Y-123925001D03*
%TO.P,JP1,3*%
%TO.N,GND*%
X116635001Y-124925001D03*
%TD*%
%TO.P,JP2,2*%
%TO.N,Net-(C4-Pad1)*%
X77089000Y-43307000D03*
D24*
%TO.P,JP2,1*%
%TO.N,Net-(JP2-Pad1)*%
X77089000Y-42307000D03*
%TD*%
D25*
%TO.P,JP3,3*%
%TO.N,GND*%
X108218001Y-111225001D03*
%TO.P,JP3,2*%
%TO.N,Net-(JP3-Pad2)*%
X108218001Y-110225001D03*
D24*
%TO.P,JP3,1*%
%TO.N,Net-(JP3-Pad1)*%
X108218001Y-109225001D03*
%TD*%
%TO.P,JP4,1*%
%TO.N,Net-(JP4-Pad1)*%
X93726000Y-41910000D03*
D25*
%TO.P,JP4,2*%
%TO.N,ADC2*%
X93726000Y-42910000D03*
%TD*%
D26*
%TO.P,R1,3*%
%TO.N,N/C*%
X65532000Y-134493000D03*
%TO.P,R1,2*%
%TO.N,GND*%
X68072000Y-134493000D03*
%TO.P,R1,1*%
%TO.N,Net-(C1-Pad1)*%
X70612000Y-134493000D03*
%TD*%
D27*
%TO.P,R2,2*%
%TO.N,Net-(D2-Pad1)*%
X57023000Y-43942000D03*
D28*
%TO.P,R2,1*%
%TO.N,GND*%
X57023000Y-51562000D03*
%TD*%
%TO.P,R3,1*%
%TO.N,+5V*%
X119595001Y-148175001D03*
D27*
%TO.P,R3,2*%
%TO.N,Net-(C1-Pad1)*%
X127215001Y-148175001D03*
%TD*%
D28*
%TO.P,R4,1*%
%TO.N,IN_P*%
X60960000Y-51816000D03*
D27*
%TO.P,R4,2*%
%TO.N,Net-(C2-Pad1)*%
X60960000Y-44196000D03*
%TD*%
D28*
%TO.P,R5,1*%
%TO.N,Net-(R5-Pad1)*%
X48260000Y-65151000D03*
D27*
%TO.P,R5,2*%
%TO.N,Accion_de_control*%
X55880000Y-65151000D03*
%TD*%
D28*
%TO.P,R6,1*%
%TO.N,Net-(R6-Pad1)*%
X49689001Y-73830001D03*
D27*
%TO.P,R6,2*%
%TO.N,Net-(R10-Pad1)*%
X57309001Y-73830001D03*
%TD*%
%TO.P,R7,2*%
%TO.N,Net-(R5-Pad1)*%
X47752000Y-60833000D03*
D28*
%TO.P,R7,1*%
%TO.N,GND*%
X55372000Y-60833000D03*
%TD*%
D27*
%TO.P,R8,2*%
%TO.N,Net-(JP2-Pad1)*%
X74422000Y-41783000D03*
D28*
%TO.P,R8,1*%
%TO.N,Net-(R8-Pad1)*%
X66802000Y-41783000D03*
%TD*%
%TO.P,R9,1*%
%TO.N,Net-(R8-Pad1)*%
X66802000Y-43815000D03*
D27*
%TO.P,R9,2*%
%TO.N,Net-(C4-Pad1)*%
X74422000Y-43815000D03*
%TD*%
%TO.P,R10,2*%
%TO.N,IN_P*%
X57719001Y-69970001D03*
D28*
%TO.P,R10,1*%
%TO.N,Net-(R10-Pad1)*%
X50099001Y-69970001D03*
%TD*%
%TO.P,R11,1*%
%TO.N,Net-(R11-Pad1)*%
X83566000Y-41402000D03*
D27*
%TO.P,R11,2*%
%TO.N,Net-(JP4-Pad1)*%
X91186000Y-41402000D03*
%TD*%
%TO.P,R12,2*%
%TO.N,ADC2*%
X91186000Y-43561000D03*
D28*
%TO.P,R12,1*%
%TO.N,Net-(R11-Pad1)*%
X83566000Y-43561000D03*
%TD*%
D26*
%TO.P,RV1,1*%
%TO.N,GND*%
X57277000Y-142494000D03*
%TO.P,RV1,2*%
%TO.N,Net-(JP1-Pad1)*%
X54737000Y-142494000D03*
%TO.P,RV1,3*%
%TO.N,+5V*%
X52197000Y-142494000D03*
%TD*%
%TO.P,RV2,1*%
%TO.N,GND*%
X131185001Y-126145001D03*
%TO.P,RV2,2*%
%TO.N,Net-(JP3-Pad1)*%
X128645001Y-126145001D03*
%TO.P,RV2,3*%
%TO.N,+5V*%
X126105001Y-126145001D03*
%TD*%
D29*
%TO.P,SW1,S2*%
%TO.N,N/C*%
X67332000Y-109140000D03*
%TO.P,SW1,S1*%
X67332000Y-104140000D03*
D30*
%TO.P,SW1,MP*%
X60332000Y-112240000D03*
X60332000Y-101040000D03*
D29*
%TO.P,SW1,B*%
X52832000Y-109140000D03*
%TO.P,SW1,C*%
X52832000Y-106640000D03*
D31*
%TO.P,SW1,A*%
X52832000Y-104140000D03*
%TD*%
D10*
%TO.P,U1,8*%
%TO.N,+12V*%
X74422000Y-46355000D03*
%TO.P,U1,4*%
%TO.N,GND*%
X66802000Y-53975000D03*
%TO.P,U1,7*%
%TO.N,OUT_P*%
X74422000Y-48895000D03*
%TO.P,U1,3*%
%TO.N,Net-(C2-Pad1)*%
X66802000Y-51435000D03*
%TO.P,U1,6*%
%TO.N,OUT_P*%
X74422000Y-51435000D03*
%TO.P,U1,2*%
%TO.N,Net-(R8-Pad1)*%
X66802000Y-48895000D03*
%TO.P,U1,5*%
%TO.N,Net-(C8-Pad1)*%
X74422000Y-53975000D03*
D11*
%TO.P,U1,1*%
%TO.N,Net-(R8-Pad1)*%
X66802000Y-46355000D03*
%TD*%
%TO.P,U2,1*%
%TO.N,Net-(R11-Pad1)*%
X83566000Y-46101000D03*
D10*
%TO.P,U2,5*%
%TO.N,Net-(C7-Pad1)*%
X91186000Y-53721000D03*
%TO.P,U2,2*%
%TO.N,Net-(R11-Pad1)*%
X83566000Y-48641000D03*
%TO.P,U2,6*%
%TO.N,Net-(R19-Pad1)*%
X91186000Y-51181000D03*
%TO.P,U2,3*%
%TO.N,Net-(C4-Pad1)*%
X83566000Y-51181000D03*
%TO.P,U2,7*%
%TO.N,Net-(R19-Pad1)*%
X91186000Y-48641000D03*
%TO.P,U2,4*%
%TO.N,GND*%
X83566000Y-53721000D03*
%TO.P,U2,8*%
%TO.N,+12V*%
X91186000Y-46101000D03*
%TD*%
D11*
%TO.P,U3,1*%
%TO.N,Net-(R15-Pad1)*%
X100203000Y-46101000D03*
D10*
%TO.P,U3,5*%
%TO.N,Net-(C6-Pad1)*%
X107823000Y-53721000D03*
%TO.P,U3,2*%
%TO.N,Net-(R15-Pad1)*%
X100203000Y-48641000D03*
%TO.P,U3,6*%
%TO.N,Net-(R18-Pad1)*%
X107823000Y-51181000D03*
%TO.P,U3,3*%
%TO.N,ADC2*%
X100203000Y-51181000D03*
%TO.P,U3,7*%
%TO.N,Net-(R18-Pad1)*%
X107823000Y-48641000D03*
%TO.P,U3,4*%
%TO.N,GND*%
X100203000Y-53721000D03*
%TO.P,U3,8*%
%TO.N,+12V*%
X107823000Y-46101000D03*
%TD*%
D26*
%TO.P,RV3,1*%
%TO.N,GND*%
X57277000Y-147574000D03*
%TO.P,RV3,2*%
%TO.N,Net-(DS1-Pad3)*%
X54737000Y-147574000D03*
%TO.P,RV3,3*%
%TO.N,+5V*%
X52197000Y-147574000D03*
%TD*%
D32*
%TO.P,U4,1*%
%TO.N,Net-(C1-Pad1)*%
X46482000Y-126111000D03*
D33*
%TO.P,U4,2*%
%TO.N,+5V*%
X46482000Y-128651000D03*
%TO.P,U4,3*%
%TO.N,+12V*%
X46482000Y-131191000D03*
%TD*%
D28*
%TO.P,R13,1*%
%TO.N,Net-(R13-Pad1)*%
X97155000Y-67945000D03*
D27*
%TO.P,R13,2*%
%TO.N,OUT_P*%
X104775000Y-67945000D03*
%TD*%
%TO.P,R14,2*%
%TO.N,Net-(R14-Pad2)*%
X131858001Y-96999001D03*
D28*
%TO.P,R14,1*%
%TO.N,Net-(R14-Pad1)*%
X124238001Y-96999001D03*
%TD*%
%TO.P,R15,1*%
%TO.N,Net-(R15-Pad1)*%
X100203000Y-43434000D03*
D27*
%TO.P,R15,2*%
%TO.N,Net-(C6-Pad1)*%
X107823000Y-43434000D03*
%TD*%
%TO.P,R16,2*%
%TO.N,Net-(R13-Pad1)*%
X131858001Y-93849001D03*
D28*
%TO.P,R16,1*%
%TO.N,GND*%
X124238001Y-93849001D03*
%TD*%
D27*
%TO.P,R17,2*%
%TO.N,ADC1*%
X130978001Y-101699001D03*
D28*
%TO.P,R17,1*%
%TO.N,Net-(R14-Pad2)*%
X123358001Y-101699001D03*
%TD*%
%TO.P,R18,1*%
%TO.N,Net-(R18-Pad1)*%
X107823000Y-56515000D03*
D27*
%TO.P,R18,2*%
%TO.N,Net-(C7-Pad1)*%
X100203000Y-56515000D03*
%TD*%
%TO.P,R19,2*%
%TO.N,Net-(C8-Pad1)*%
X73025000Y-62103000D03*
D28*
%TO.P,R19,1*%
%TO.N,Net-(R19-Pad1)*%
X80645000Y-62103000D03*
%TD*%
%TO.P,R20,1*%
%TO.N,Net-(D4-Pad1)*%
X94488000Y-76708000D03*
D27*
%TO.P,R20,2*%
%TO.N,GND*%
X102108000Y-76708000D03*
%TD*%
D34*
%TO.N,ADC2*%
X93100001Y-43561000D02*
X93726000Y-42935001D01*
X91186000Y-43561000D02*
X93100001Y-43561000D01*
X100203000Y-51181000D02*
X97663000Y-51181000D01*
X97663000Y-51181000D02*
X95758000Y-49276000D01*
X94377000Y-43561000D02*
X93100001Y-43561000D01*
X95758000Y-44942000D02*
X94377000Y-43561000D01*
X95758000Y-49276000D02*
X95758000Y-44942000D01*
%TO.N,Net-(C2-Pad1)*%
X60960000Y-44196000D02*
X60960000Y-47117000D01*
X60960000Y-47117000D02*
X63627000Y-49784000D01*
X64135000Y-51435000D02*
X66802000Y-51435000D01*
X63627000Y-50927000D02*
X64135000Y-51435000D01*
X63500000Y-49911000D02*
X63627000Y-49784000D01*
X63500000Y-57404000D02*
X63500000Y-49911000D01*
%TO.N,Net-(C4-Pad1)*%
X76606001Y-43815000D02*
X77089000Y-43332001D01*
X74422000Y-43815000D02*
X76606001Y-43815000D01*
X83566000Y-51181000D02*
X80772000Y-51181000D01*
X80772000Y-51181000D02*
X79121000Y-49530000D01*
X77597000Y-43815000D02*
X76606001Y-43815000D01*
X79121000Y-45339000D02*
X77597000Y-43815000D01*
X79121000Y-57023000D02*
X79121000Y-48895000D01*
X79121000Y-48895000D02*
X79121000Y-45339000D01*
X79121000Y-49530000D02*
X79121000Y-48895000D01*
%TO.N,Net-(C6-Pad1)*%
X96393000Y-58928000D02*
X109347000Y-58928000D01*
X109347000Y-58928000D02*
X110744000Y-57531000D01*
X110744000Y-57531000D02*
X110744000Y-54483000D01*
X109982000Y-53721000D02*
X107823000Y-53721000D01*
X110744000Y-54483000D02*
X109982000Y-53721000D01*
%TO.N,Net-(C7-Pad1)*%
X100203000Y-56515000D02*
X97409000Y-53721000D01*
X97409000Y-53721000D02*
X91186000Y-53721000D01*
%TO.N,Net-(C8-Pad1)*%
X73025000Y-62103000D02*
X71628000Y-62103000D01*
X71628000Y-62103000D02*
X70866000Y-61341000D01*
X70866000Y-61341000D02*
X70866000Y-57785000D01*
X71588000Y-57063000D02*
X74422000Y-57063000D01*
X70866000Y-57785000D02*
X71588000Y-57063000D01*
%TO.N,+12V*%
X48768000Y-50673000D02*
X51308000Y-50673000D01*
X51308000Y-50673000D02*
X53086000Y-48895000D01*
X55880000Y-38608000D02*
X57152792Y-38608000D01*
X53086000Y-41402000D02*
X55750208Y-38737792D01*
X53086000Y-41145208D02*
X53086000Y-48768000D01*
X72644000Y-46355000D02*
X74422000Y-46355000D01*
X70612000Y-44323000D02*
X72644000Y-46355000D01*
X70612000Y-41148000D02*
X70612000Y-44323000D01*
X68072000Y-38608000D02*
X70612000Y-41148000D01*
X57023000Y-38608000D02*
X68072000Y-38608000D01*
X68072000Y-38608000D02*
X85090000Y-38608000D01*
X85090000Y-38608000D02*
X87376000Y-40894000D01*
X87376000Y-40894000D02*
X87376000Y-44577000D01*
X88900000Y-46101000D02*
X91186000Y-46101000D01*
X87376000Y-44577000D02*
X88900000Y-46101000D01*
X85090000Y-38608000D02*
X101727000Y-38608000D01*
X101727000Y-38608000D02*
X104140000Y-41021000D01*
X104140000Y-41021000D02*
X104140000Y-44704000D01*
X105537000Y-46101000D02*
X107823000Y-46101000D01*
X104140000Y-44704000D02*
X105537000Y-46101000D01*
%TO.N,Net-(D2-Pad1)*%
X57023000Y-43942000D02*
X57023000Y-41148000D01*
%TO.N,Net-(JP2-Pad1)*%
X76590001Y-41783000D02*
X77089000Y-42281999D01*
X74422000Y-41783000D02*
X76590001Y-41783000D01*
%TO.N,Net-(JP4-Pad1)*%
X93243001Y-41402000D02*
X93726000Y-41884999D01*
X91186000Y-41402000D02*
X93243001Y-41402000D01*
%TO.N,Net-(R8-Pad1)*%
X66802000Y-42926000D02*
X66802000Y-46355000D01*
X66802000Y-46355000D02*
X66802000Y-48895000D01*
X66802000Y-41783000D02*
X66802000Y-43815000D01*
%TO.N,Net-(R11-Pad1)*%
X83566000Y-41402000D02*
X83566000Y-43561000D01*
X83566000Y-43561000D02*
X83566000Y-46101000D01*
X83566000Y-46101000D02*
X83566000Y-48641000D01*
%TO.N,Net-(R15-Pad1)*%
X100203000Y-43434000D02*
X100203000Y-46101000D01*
X100203000Y-46101000D02*
X100203000Y-48641000D01*
%TO.N,Net-(R18-Pad1)*%
X107823000Y-51181000D02*
X107823000Y-48641000D01*
X107823000Y-51181000D02*
X105029000Y-51181000D01*
X105029000Y-51181000D02*
X104140000Y-52070000D01*
X104140000Y-52070000D02*
X104140000Y-55753000D01*
X104902000Y-56515000D02*
X107823000Y-56515000D01*
X104140000Y-55753000D02*
X104902000Y-56515000D01*
%TO.N,Net-(R19-Pad1)*%
X80645000Y-62103000D02*
X87757000Y-54991000D01*
X87757000Y-54991000D02*
X87757000Y-52578000D01*
X89154000Y-51181000D02*
X91186000Y-51181000D01*
X87757000Y-52578000D02*
X89154000Y-51181000D01*
X91186000Y-48641000D02*
X91186000Y-51181000D01*
%TD*%
M02*
